<svg xmlns="http://www.w3.org/2000/svg" width="32" height="32" viewBox="0 0 512 512">
  <defs>
    <pattern id="keffiyeh" patternUnits="userSpaceOnUse" width="32" height="32" patternTransform="rotate(45 16 16)">
      <rect x="0" y="0" width="32" height="32" fill="#ffffff"/>
      <polygon points="16,0 32,16 16,32 0,16" fill="#da302e"/>
    </pattern>
    <filter id="softshadow" x="-20%" y="-20%" width="140%" height="140%">
      <feDropShadow dx="0" dy="4" stdDeviation="4" flood-opacity="0.25"/>
    </filter>
  </defs>

  <g stroke="#111110" stroke-width="18" stroke-linejoin="round" stroke-linecap="round" filter="url(#softshadow)">
    <path d="M128 148 Q256 72 384 148 Q390 172 370 184 Q256 132 142 184 Q122 172 128 148Z" fill="#111110"/>
    <path d="M128 168 Q256 98 384 168 Q360 236 256 236 Q152 236 128 168Z" fill="url(#keffiyeh)"/>
    <path d="M118 182 C100 220, 92 268, 116 308 L156 372 C170 394, 206 406, 228 392 C180 322, 168 268, 186 220 C156 208, 136 196, 118 182Z" fill="url(#keffiyeh)"/>
    <path d="M394 182 C412 220, 420 268, 396 308 L356 372 C342 394, 306 406, 284 392 C332 322, 344 268, 326 220 C356 208, 376 196, 394 182Z" fill="url(#keffiyeh)"/>
    <path d="M256 180 C232 150, 178 144, 150 180 C112 228, 128 304, 256 388 C384 304, 400 228, 362 180 C334 144, 280 150, 256 180Z" fill="#ffffff"/>
    <path d="M256 204 C238 178, 190 174, 168 200 C138 236, 150 296, 256 362 C362 296, 374 236, 344 200 C322 174, 274 178, 256 204Z" fill="#da302e"/>
  </g>
</svg>